<mxfile host="app.diagrams.net" modified="2023-09-02T02:45:02.054Z" agent="Mozilla/5.0 (Windows NT 10.0; Win64; x64) AppleWebKit/537.36 (KHTML, like Gecko) Chrome/116.0.0.0 Safari/537.36" etag="-0RUy9S7-G84UkS813OM" version="21.7.2" type="github">
  <diagram name="第 1 页" id="MD9sumrRmw8d3EU4R2AQ">
    <mxGraphModel dx="1434" dy="1919" grid="1" gridSize="10" guides="1" tooltips="1" connect="1" arrows="1" fold="1" page="1" pageScale="1" pageWidth="827" pageHeight="1169" math="0" shadow="0">
      <root>
        <mxCell id="0" />
        <mxCell id="1" parent="0" />
        <mxCell id="qKW2FZFYIQaPxxNSmSQa-7" value="&lt;div style=&quot;background-color: rgb(255, 255, 255); color: rgb(8, 8, 8); font-family: &amp;quot;JetBrains Mono&amp;quot;, monospace; font-size: 9.8pt;&quot;&gt;&lt;br&gt;&lt;/div&gt;" style="rounded=0;whiteSpace=wrap;html=1;fontSize=24;sketch=1;curveFitting=1;jiggle=2;labelBackgroundColor=none;fillColor=#F2CC8F;strokeColor=#E07A5F;fontColor=#393C56;fontFamily=Comic Sans MS;shadow=1;glass=0;" vertex="1" parent="1">
          <mxGeometry x="265" y="90" width="755" height="360" as="geometry" />
        </mxCell>
        <mxCell id="qKW2FZFYIQaPxxNSmSQa-6" value="BeanFacotry" style="rounded=1;whiteSpace=wrap;html=1;fontSize=24;sketch=1;curveFitting=1;jiggle=2;labelBackgroundColor=none;fillColor=#F2CC8F;strokeColor=#E07A5F;fontColor=#393C56;fontFamily=Comic Sans MS;" vertex="1" parent="1">
          <mxGeometry x="280" y="130" width="720" height="60" as="geometry" />
        </mxCell>
        <mxCell id="qKW2FZFYIQaPxxNSmSQa-9" value="ApplicationContext" style="text;html=1;strokeColor=none;fillColor=none;align=center;verticalAlign=middle;whiteSpace=wrap;rounded=1;fontSize=24;sketch=1;curveFitting=1;jiggle=2;labelBackgroundColor=none;fontColor=#393C56;fontFamily=Comic Sans MS;" vertex="1" parent="1">
          <mxGeometry x="615" y="90" width="60" height="30" as="geometry" />
        </mxCell>
        <mxCell id="qKW2FZFYIQaPxxNSmSQa-10" value="BeanFacotryPostProcessor" style="rounded=1;whiteSpace=wrap;html=1;fontSize=24;sketch=1;curveFitting=1;jiggle=2;labelBackgroundColor=none;fillColor=#F2CC8F;strokeColor=#E07A5F;fontColor=#393C56;fontFamily=Comic Sans MS;" vertex="1" parent="1">
          <mxGeometry x="670" y="210" width="330" height="60" as="geometry" />
        </mxCell>
        <mxCell id="qKW2FZFYIQaPxxNSmSQa-11" value="BeanPostProcessor" style="rounded=1;whiteSpace=wrap;html=1;fontSize=24;sketch=1;curveFitting=1;jiggle=2;labelBackgroundColor=none;fillColor=#F2CC8F;strokeColor=#E07A5F;fontColor=#393C56;fontFamily=Comic Sans MS;" vertex="1" parent="1">
          <mxGeometry x="280" y="210" width="360" height="60" as="geometry" />
        </mxCell>
        <mxCell id="qKW2FZFYIQaPxxNSmSQa-12" value="BeanDefinitionReader" style="rounded=1;whiteSpace=wrap;html=1;fontSize=24;sketch=1;curveFitting=1;jiggle=2;labelBackgroundColor=none;fillColor=#F2CC8F;strokeColor=#E07A5F;fontColor=#393C56;fontFamily=Comic Sans MS;" vertex="1" parent="1">
          <mxGeometry x="280" y="290" width="360" height="60" as="geometry" />
        </mxCell>
        <mxCell id="qKW2FZFYIQaPxxNSmSQa-13" value="BeanDefinitionScanner" style="rounded=1;whiteSpace=wrap;html=1;fontSize=24;sketch=1;curveFitting=1;jiggle=2;labelBackgroundColor=none;fillColor=#F2CC8F;strokeColor=#E07A5F;fontColor=#393C56;fontFamily=Comic Sans MS;" vertex="1" parent="1">
          <mxGeometry x="670" y="290" width="330" height="60" as="geometry" />
        </mxCell>
        <mxCell id="qKW2FZFYIQaPxxNSmSQa-14" value="BeanDefinitionRegistry" style="rounded=1;whiteSpace=wrap;html=1;fontSize=24;sketch=1;curveFitting=1;jiggle=2;labelBackgroundColor=none;fillColor=#F2CC8F;strokeColor=#E07A5F;fontColor=#393C56;fontFamily=Comic Sans MS;" vertex="1" parent="1">
          <mxGeometry x="460" y="-70" width="360" height="60" as="geometry" />
        </mxCell>
        <mxCell id="qKW2FZFYIQaPxxNSmSQa-19" value="MessageSource" style="rounded=1;whiteSpace=wrap;html=1;fontSize=24;sketch=1;curveFitting=1;jiggle=2;labelBackgroundColor=none;fillColor=#F2CC8F;strokeColor=#E07A5F;fontColor=#393C56;fontFamily=Comic Sans MS;" vertex="1" parent="1">
          <mxGeometry x="280" y="370" width="360" height="60" as="geometry" />
        </mxCell>
        <mxCell id="qKW2FZFYIQaPxxNSmSQa-22" value="" style="endArrow=block;dashed=1;endFill=0;endSize=12;html=1;rounded=0;sketch=1;hachureGap=4;jiggle=2;curveFitting=1;strokeColor=#E07A5F;fontFamily=Architects Daughter;fontSource=https%3A%2F%2Ffonts.googleapis.com%2Fcss%3Ffamily%3DArchitects%2BDaughter;fontSize=16;fontColor=#393C56;fillColor=#F2CC8F;entryX=0.5;entryY=1;entryDx=0;entryDy=0;exitX=0.5;exitY=0;exitDx=0;exitDy=0;" edge="1" parent="1" source="qKW2FZFYIQaPxxNSmSQa-7" target="qKW2FZFYIQaPxxNSmSQa-14">
          <mxGeometry width="160" relative="1" as="geometry">
            <mxPoint x="610" y="50" as="sourcePoint" />
            <mxPoint x="770" y="50" as="targetPoint" />
          </mxGeometry>
        </mxCell>
        <mxCell id="qKW2FZFYIQaPxxNSmSQa-23" value="ApplicationEventPublisher" style="rounded=1;whiteSpace=wrap;html=1;fontSize=24;sketch=1;curveFitting=1;jiggle=2;labelBackgroundColor=none;fillColor=#F2CC8F;strokeColor=#E07A5F;fontColor=#393C56;fontFamily=Comic Sans MS;" vertex="1" parent="1">
          <mxGeometry x="670" y="370" width="330" height="60" as="geometry" />
        </mxCell>
      </root>
    </mxGraphModel>
  </diagram>
</mxfile>
